<svg width="997" height="184" viewBox="0 0 997 184" fill="none" xmlns="http://www.w3.org/2000/svg"><path fill-rule="evenodd" clip-rule="evenodd" d="M160.699 14.8586v89.3354h17.613V71.6504h21.696c17.483 0 30.501-12.1229 30.501-28.5862 0-16.3374-12.507-28.2056-29.863-28.2056h-39.947zm38.033 41.734h-20.42V30.5577h20.42c8.423 0 14.293 5.3592 14.293 13.0169 0 7.6578-5.87 13.018-14.293 13.018zm56.279-46.83754l-16.207 5.10354v89.3354h16.207V9.75506zm39.434 95.33294c7.913 0 15.061-2.935 20.42-7.9131v7.0191h16.207V40.5129h-16.207v7.0165c-5.106-5.1035-12.125-8.0384-19.78-8.0384-16.591 0-31.652 13.7822-31.652 32.7977 0 19.0146 14.804 32.7993 31.012 32.7993zm2.808-14.5489c-9.826 0-17.74-7.5309-17.74-18.2504 0-10.7204 7.914-18.2503 17.74-18.2503 9.955 0 17.739 7.5299 17.739 18.2503 0 10.7195-7.784 18.2504-17.739 18.2504zm109.372-50.0262H389.65l-18.123 37.5196-18.504-37.5196h-18.121l27.311 55.6401-18.25 36.247h17.612l45.05-91.8871zM93.019 77.7144l-5.2036-8.307H72.6228l5.2115-8.3208h4.8002l-5.8023-9.2635-16.1837 25.8913H17.4723l10.3963-16.6278h-7.6329l5.1887-8.3209H58.799l-5.1928 8.3209H37.6891l-5.2036 8.3208h23.5471l20.7996-33.2883 25.9968 41.5953h-9.81zM35.8237 36.1191h34.2349l-5.2036 8.3248H30.6241l5.1996-8.3248zM59.5503 0C26.6634 0 0 26.6653 0 59.5532c0 32.8969 26.6634 59.5498 59.5503 59.5498s59.5537-26.6529 59.5537-59.5498C119.104 26.6653 92.4372 0 59.5503 0z" fill="#FF4747"/><path d="M475.549 66.2031l13.998 17.4551-6.949-.0001-10.511-13.1301-10.513 13.1313-6.949.0001 13.999-17.4563-13.979-17.4612 6.9-.0013 10.542 13.1451 10.541-13.1439 6.899.0013-13.978 17.46zM722.129 79.5686h2.245v6.0472h1.241v-6.0472h2.246v-1.0674h-5.732v1.0674zm6.559 6.0472h1.181v-5.5147l1.95 5.5135h1.005l1.947-5.5135v5.5135h1.182v-7.1134h-1.654l-1.891 5.5729-1.948-5.5729h-1.772v7.1146zM594.801 61.1299l-25.17 24.4855h-32.084l39.942-39.7815c14.831-14.703 21.98-17.1337 47.269-17.1337h99.975l-21.686 21.3432h-75.394c-18.906 0-22.925 1.4229-32.852 11.0854v.0011zm104.996-7.7071h-71.73c-19.026 0-22.039 1.4822-30.666 10.1379l-21.982 22.0564h29.782l7.09-7.1146c4.67-4.6856 6.795-5.1581 16.19-5.1581h51.463l19.853-19.9216zm7.738 32.1926l56.903-56.9152h-35.334l-56.722 56.9152h35.153zM782.926 94.1526h-4.313v-1.4228h10.222v1.4228h-4.254v9.3674h-1.654l-.001-9.3674zM790.379 92.7298h1.594v4.5056h6.855v-4.5056h1.654V103.52h-1.654v-4.7429h-6.855v4.7429h-1.594V92.7298zM803.023 92.7298h8.627v1.4228h-6.972v3.1428h6.972v1.4822h-6.972v3.3204h6.972v1.422h-8.627V92.7298zM823.235 103.698h-1.419c-3.308 0-4.726-1.837-4.726-4.6853v-1.7176c0-2.9051 1.418-4.7427 4.726-4.7427h1.418c3.309 0 4.727 1.8376 4.727 4.7427v1.7193c0 2.8456-1.418 4.6856-4.727 4.6856l.001-.002zm-1.655-1.421h1.891c1.95 0 2.718-.948 2.718-2.8454v-2.5491c0-1.9565-.768-2.8456-2.718-2.8456h-1.891c-1.95 0-2.718.9485-2.718 2.8456v2.4902c0 1.9563.768 2.9053 2.718 2.9053M830.027 92.7298h8.627v1.4228h-6.972v3.1428h6.972v1.4822h-6.972v4.7424h-1.655V92.7298zM840.605 92.7298h8.627v1.4228h-6.972v3.1428h6.972v1.4822h-6.972v4.7424h-1.655V92.7298zM852.947 92.7298h-1.654V103.52h1.654V92.7298zM864.582 103.52h-4.726c-3.368 0-4.727-1.838-4.727-4.7429v-1.3046c0-2.8456 1.359-4.7427 4.727-4.7427h4.669v1.4228h-4.904c-2.009 0-2.718.9486-2.718 2.8457v2.1342c0 1.9565.709 2.8455 2.718 2.8455h4.961v1.543-.001zM868.256 92.7298h-1.654V103.52h1.654V92.7298zM878.826 100.616h-6.028l-1.241 2.905h-1.772l4.077-9.1898c.473-1.0674.828-1.7788 1.95-1.7788 1.122 0 1.538.7114 1.891 1.5999l4.077 9.3667h-1.773l-1.181-2.903zm-5.377-1.5433h4.726l-1.95-4.565c-.118-.356-.236-.4743-.413-.4743s-.296.0572-.413.4149l-1.95 4.6244zM883.258 92.7298h1.654v9.3672h6.382v1.423h-8.036V92.7298zM900.685 101.504c.118.356.236.475.413.475s.296-.057.414-.415l3.25-8.8342h1.773l-3.428 9.2492c-.413 1.067-.827 1.719-1.89 1.719-1.123 0-1.654-.711-1.95-1.6l-3.427-9.3682h1.89l2.955 8.7742zM909.975 92.7298h-1.655V103.52h1.655V92.7298zM922.545 97.2354v1.7194c0 2.8452-1.714 4.5052-5.082 4.5052h-4.783V92.7298h4.845c3.249 0 5.022 1.66 5.022 4.5056h-.002zm-8.211-3.0856v7.8852h3.368c2.009 0 3.075-.771 3.075-2.7271v-2.4308c0-1.9565-1.064-2.6679-3.014-2.6679h-3.427l-.002-.0594zM924.328 92.7298h8.626v1.4228h-6.972v3.1428h6.972v1.4822h-6.972v3.3204h6.972v1.422h-8.626V92.7298zM940.86 103.698h-1.418c-3.309 0-4.727-1.837-4.727-4.6853v-1.7176c0-2.9051 1.418-4.7427 4.727-4.7427h1.417c3.309 0 4.727 1.8376 4.727 4.7427v1.7193c0 2.8456-1.477 4.6856-4.727 4.6856l.001-.002zm-1.655-1.421h1.891c1.95 0 2.718-.948 2.718-2.8454v-2.5491c0-1.9565-.768-2.8456-2.718-2.8456h-1.891c-1.95 0-2.718.9485-2.718 2.8456v2.4902c0 1.9563.709 2.9053 2.718 2.9053M956.999 94.1526h-5.377c-2.009 0-2.718.9486-2.718 2.8457v2.3119c0 1.9568.709 2.9048 2.659 2.9048h1.595c2.068 0 2.659-.356 2.659-1.6v-1.7785h-3.605v-1.364h5.259v2.9055c0 2.727-1.3 3.319-4.49 3.319h-1.12c-3.25 0-4.67-1.837-4.67-4.7422v-1.4823c0-2.8456 1.359-4.7427 4.727-4.7427h5.141v1.4228h-.06zM967.224 100.616h-6.027l-1.241 2.905h-1.772l4.076-9.1898c.473-1.0674.828-1.7788 1.95-1.7788 1.123 0 1.538.7114 1.891 1.5999l4.077 9.3667h-1.772l-1.182-2.903zm-5.377-1.5433h4.727l-1.95-4.565c-.119-.356-.237-.4743-.414-.4743s-.295.0572-.413.4149l-1.95 4.6244zM972.659 94.4494c.236-1.2451.768-1.897 1.832-1.897 1.182 0 1.713.8891 1.95 2.0159l1.773 7.4107c.057.237.118.415.236.415.177 0 .177-.119.236-.415l1.773-7.4107c.296-1.1857.886-2.0159 2.009-2.0159 1.182 0 1.714.6519 1.95 1.897l1.595 9.0716h-1.773l-1.477-9.1304c-.057-.2966-.118-.4149-.296-.4149s-.296.1183-.355.4149l-1.77 7.4104c-.296 1.245-.769 1.897-1.95 1.897-1.241 0-1.655-.83-1.891-1.837l-1.713-7.411c-.057-.356-.178-.4148-.355-.4148-.178 0-.296.1188-.296.4148l-1.537 9.131h-1.655l1.714-9.1316zM988.02 92.7298h8.626v1.4228h-6.972v3.1428h6.972v1.4822h-6.972v3.3204h6.972v1.422h-8.626V92.7298zM851.941 69.3702h32.439V44.9441h-32.439v24.4261zm8.095-16.304h16.19v8.1225h-16.19v-8.1225z" fill="#fff"/><path d="M996.653 69.3707v-8.1221h-4.432v-16.304c-.007-4.3062-1.714-8.4342-4.749-11.4793-3.035-3.045-7.149-4.7586-11.44-4.7653H855.614c-3.142-.003-6.242.7295-9.052 2.1395-2.811 1.41-5.255 3.4584-7.138 5.9825-1.899-2.5205-4.355-4.5655-7.174-5.9746-2.819-1.4091-5.924-2.1441-9.074-2.1474h-44.551v8.122h44.551c3.214.0221 6.288 1.3185 8.553 3.6065 2.265 2.288 3.536 5.3819 3.536 8.6066 0 3.2247-1.271 6.3185-3.536 8.6065-2.265 2.288-5.339 3.5844-8.553 3.6065h-28.36v8.1226h40.946c.592 2.9506 1.845 5.7277 3.663 8.122h-52.646V65.2799c-.003-1.6045.311-3.1937.922-4.6765.61-1.4829 1.507-2.8302 2.638-3.9648 1.13-1.1345 2.473-2.0341 3.951-2.647 1.478-.613 3.062-.9273 4.661-.925h28.36v-8.122h-48.686v8.122h4.077c-2.644 3.5195-4.075 7.8062-4.077 12.2133v20.3354h60.799v-8.1221c1.888 2.5192 4.333 4.5641 7.142 5.9735 2.81 1.4095 5.907 2.145 9.048 2.1486h24.284c4.391-.0119 8.66-1.4467 12.172-4.0908v4.0908h104.583v-8.1221h-96.488V65.2799c-.002-1.6045.311-3.1938.922-4.6767.611-1.4829 1.508-2.8302 2.638-3.9648 1.131-1.1346 2.474-2.0341 3.952-2.647 1.478-.6129 3.062-.9272 4.661-.9248h28.36v-8.122h-40.946c-.593-2.9506-1.845-5.7277-3.663-8.122h40.533c3.214.0221 6.288 1.3185 8.553 3.6065 2.265 2.288 3.536 5.3818 3.536 8.6065 0 3.2247-1.271 6.3186-3.536 8.6066-2.265 2.2879-5.339 3.5844-8.553 3.6064h-28.36v8.1221h67.77V44.9446h-19.381c-.157-2.8863-1.052-5.6835-2.599-8.122h21.921c1.064-.0033 2.118.2045 3.101.6115.984.407 1.877 1.0051 2.63 1.76.752.7548 1.348 1.6515 1.754 2.6384.405.9869.612 2.0446.609 3.1121v24.3666h12.586v.0595zm-116.754 8.1225h-24.285c-1.599.0023-3.183-.3121-4.661-.925-1.477-.613-2.82-1.5126-3.951-2.6471-1.13-1.1346-2.027-2.4819-2.638-3.9647-.61-1.4828-.924-3.072-.921-4.6765V49.0353c-.003-1.6045.311-3.1937.921-4.6765.611-1.4829 1.508-2.8302 2.639-3.9648 1.13-1.1345 2.473-2.0341 3.951-2.647 1.478-.613 3.062-.9273 4.661-.925h24.284c1.599-.0022 3.183.3121 4.66.9251 1.478.613 2.821 1.5126 3.951 2.6471 1.131 1.1346 2.028 2.4819 2.638 3.9647.611 1.4828.924 3.072.922 4.6764v16.2446c.002 1.6046-.311 3.1938-.922 4.6766-.611 1.4829-1.507 2.8302-2.638 3.9648-1.13 1.1345-2.473 2.0341-3.951 2.647-1.478.613-3.062.9273-4.661.9249h.001zm88.04-16.2446h-13.828c1.489-2.4656 2.379-5.2477 2.6-8.122h11.285v8.122h-.057z" fill="#fff"/></svg>